<?xml version="1.0"?>
<svg width="300" height="30" xmlns="http://www.w3.org/2000/svg" xmlns:svg="http://www.w3.org/2000/svg" enable-background="new 0 0 300 30" version="1.1" xml:space="preserve">
 <style type="text/css">.st0{fill-rule:evenodd;clip-rule:evenodd;fill:#3B1F1B;}</style>
 <g class="layer">
  <title>Layer 1</title>
  <g id="XMLID_2_">
   <path class="st0" d="m293.1,23.1c0,-0.1 0,-0.2 0,-0.2c0,-0.1 -0.1,-0.1 -0.2,-0.2c-0.1,0 -0.1,-0.1 -0.2,-0.1s-0.2,0 -0.3,0l-0.4,0l0,1.1l0.2,0c0.1,0 0.3,0 0.4,0s0.2,-0.1 0.3,-0.1c0.1,0 0.1,-0.1 0.2,-0.2c0,-0.1 0,-0.2 0,-0.3zm1.6,2.8l-1.2,0l-1.2,-1.5l-0.3,0l0,1.5l-1,0l0,-4l1.5,0c0.3,0 0.5,0 0.7,0s0.3,0.1 0.5,0.2s0.3,0.2 0.4,0.4c0.1,0.1 0.1,0.3 0.1,0.5c0,0.3 -0.1,0.5 -0.2,0.7c-0.2,0.2 -0.4,0.3 -0.6,0.4l1.3,1.8zm1,-1.9c0,-0.9 -0.3,-1.6 -0.9,-2.2s-1.4,-0.9 -2.2,-0.9c-0.9,0 -1.6,0.3 -2.2,0.9s-0.9,1.4 -0.9,2.2c0,0.9 0.3,1.6 0.9,2.2s1.4,0.9 2.2,0.9c0.9,0 1.6,-0.3 2.2,-0.9c0.6,-0.6 0.9,-1.3 0.9,-2.2zm0.9,0c0,1.1 -0.4,2.1 -1.2,2.9c-0.8,0.8 -1.7,1.2 -2.9,1.2c-1.1,0 -2.1,-0.4 -2.8,-1.2c-0.8,-0.8 -1.2,-1.7 -1.2,-2.9c0,-1.1 0.4,-2 1.2,-2.8c0.8,-0.8 1.7,-1.2 2.9,-1.2c1.1,0 2.1,0.4 2.8,1.2c0.8,0.8 1.2,1.7 1.2,2.8z" id="XMLID_22_" transform="matrix(1 0 0 1 0 0)"/>
   <text fill="#000000" font-family="Serif" font-size="24" id="svg_2" stroke-width="0" text-anchor="middle" transform="rotate(1.30195 13.699 5.97976)" x="13.53" xml:space="preserve" y="13.98"/>
   <text fill="#7f0000" font-family="Fantasy" font-size="28" id="svg_3" letter-spacing="7" stroke-width="0" text-anchor="middle" x="152.5" xml:space="preserve" y="26">SWEETSTACKS</text>
  </g>
 </g>
</svg>